<svg id="visual" viewBox="0 0 900 600" width="900" height="600" xmlns="http://www.w3.org/2000/svg" xmlns:xlink="http://www.w3.org/1999/xlink" version="1.1"><rect x="0" y="0" width="900" height="600" fill="#001220"></rect><defs><linearGradient id="grad1_0" x1="33.3%" y1="0%" x2="100%" y2="100%"><stop offset="20%" stop-color="#fbae3c" stop-opacity="1"></stop><stop offset="80%" stop-color="#fbae3c" stop-opacity="1"></stop></linearGradient></defs><defs><linearGradient id="grad1_1" x1="33.3%" y1="0%" x2="100%" y2="100%"><stop offset="20%" stop-color="#fbae3c" stop-opacity="1"></stop><stop offset="80%" stop-color="#96446e" stop-opacity="1"></stop></linearGradient></defs><defs><linearGradient id="grad1_2" x1="33.3%" y1="0%" x2="100%" y2="100%"><stop offset="20%" stop-color="#001220" stop-opacity="1"></stop><stop offset="80%" stop-color="#96446e" stop-opacity="1"></stop></linearGradient></defs><defs><linearGradient id="grad2_0" x1="0%" y1="0%" x2="66.7%" y2="100%"><stop offset="20%" stop-color="#fbae3c" stop-opacity="1"></stop><stop offset="80%" stop-color="#fbae3c" stop-opacity="1"></stop></linearGradient></defs><defs><linearGradient id="grad2_1" x1="0%" y1="0%" x2="66.7%" y2="100%"><stop offset="20%" stop-color="#96446e" stop-opacity="1"></stop><stop offset="80%" stop-color="#fbae3c" stop-opacity="1"></stop></linearGradient></defs><defs><linearGradient id="grad2_2" x1="0%" y1="0%" x2="66.7%" y2="100%"><stop offset="20%" stop-color="#96446e" stop-opacity="1"></stop><stop offset="80%" stop-color="#001220" stop-opacity="1"></stop></linearGradient></defs><g transform="translate(900, 0)"><path d="M0 405.6C-59.1 398.9 -118.2 392.2 -146.6 353.8C-175 315.5 -172.7 245.6 -212.8 212.8C-253 180.1 -335.5 184.5 -374.7 155.2C-413.9 125.9 -409.8 63 -405.6 0L0 0Z" fill="#3d3056"></path><path d="M0 270.4C-39.4 265.9 -78.8 261.4 -97.7 235.9C-116.6 210.3 -115.1 163.7 -141.9 141.9C-168.7 120.1 -223.7 123 -249.8 103.5C-276 84 -273.2 42 -270.4 0L0 0Z" fill="#e1685e"></path><path d="M0 135.2C-19.7 133 -39.4 130.7 -48.9 117.9C-58.3 105.2 -57.6 81.9 -70.9 70.9C-84.3 60 -111.8 61.5 -124.9 51.7C-138 42 -136.6 21 -135.2 0L0 0Z" fill="#fbae3c"></path></g><g transform="translate(0, 600)"><path d="M0 -405.6C39.8 -356.4 79.5 -307.1 116 -279.9C152.4 -252.7 185.5 -247.6 233.3 -233.3C281.1 -219.1 343.6 -195.6 374.7 -155.2C405.9 -114.8 405.8 -57.4 405.6 0L0 0Z" fill="#3d3056"></path><path d="M0 -270.4C26.5 -237.6 53 -204.7 77.3 -186.6C101.6 -168.5 123.7 -165.1 155.6 -155.6C187.4 -146 229.1 -130.4 249.8 -103.5C270.6 -76.5 270.5 -38.3 270.4 0L0 0Z" fill="#e1685e"></path><path d="M0 -135.2C13.3 -118.8 26.5 -102.4 38.7 -93.3C50.8 -84.2 61.8 -82.5 77.8 -77.8C93.7 -73 114.5 -65.2 124.9 -51.7C135.3 -38.3 135.3 -19.1 135.2 0L0 0Z" fill="#fbae3c"></path></g></svg>